<?xml version="1.0" encoding="UTF-8" standalone="no"?>
<!DOCTYPE svg PUBLIC "-//W3C//DTD SVG 1.1//EN" "http://www.w3.org/Graphics/SVG/1.1/DTD/svg11.dtd">
<svg version="1.1" xmlns="http://www.w3.org/2000/svg" xmlns:xlink="http://www.w3.org/1999/xlink" preserveAspectRatio="xMidYMid meet" viewBox="0 0 1000 1200" width="1000" height="1200"><defs><path d="M355.92 757.26C306.43 690.71 249.11 629.29 196.07 564.76C178.37 543.22 163.09 520.46 146.08 498.1C112.06 453.4 84.48 401.57 86.23 334.34C87.94 268.65 112.99 215.95 149.11 172.87C208.51 102.01 308.01 43.91 441.52 28.64C550.68 16.16 653.02 37.25 725.6 69.44C784.91 95.74 830.84 130.88 865.75 172.3C902.19 215.52 927.28 266.58 929.38 333.19C930.46 367.31 923.09 398.91 912.72 425.13C902.21 451.66 885.32 473.84 870.29 497.53C840.96 543.77 804.18 586.15 767.27 628.54C657.33 754.83 554.13 883.61 508.94 1060.08C477.7 943.77 422.63 846.97 355.92 757.26Z" id="f2jGF08QSD"></path><path d="M916.69 400.06L501.22 1018.08L501.22 400.06L916.69 400.06Z" id="a2iD5W1cMz"></path><path d="M910.57 335.11C910.57 496.51 729.86 627.54 507.29 627.54C284.71 627.54 104.01 496.51 104.01 335.11C104.01 173.71 284.71 42.68 507.29 42.68C729.86 42.68 910.57 173.71 910.57 335.11Z" id="dwwIpUvr2"></path><path d="M641.61 336.31C641.61 399.09 581.66 450.06 507.82 450.06C433.98 450.06 374.03 399.09 374.03 336.31C374.03 273.53 433.98 222.56 507.82 222.56C581.66 222.56 641.61 273.53 641.61 336.31Z" id="b1ckSIG2O5"></path></defs><g><g><g><use xlink:href="#f2jGF08QSD" opacity="1" fill="#11719e" fill-opacity="1"></use><g><use xlink:href="#f2jGF08QSD" opacity="1" fill-opacity="0" stroke="#61686b" stroke-width="37" stroke-opacity="1"></use></g></g><g><use xlink:href="#a2iD5W1cMz" opacity="1" fill="#61686b" fill-opacity="1"></use><g><use xlink:href="#a2iD5W1cMz" opacity="1" fill-opacity="0" stroke="#61686b" stroke-width="1" stroke-opacity="1"></use></g></g><g><use xlink:href="#dwwIpUvr2" opacity="1" fill="#11719e" fill-opacity="1"></use></g><g><use xlink:href="#b1ckSIG2O5" opacity="1" fill="#61686b" fill-opacity="1"></use><g><use xlink:href="#b1ckSIG2O5" opacity="1" fill-opacity="0" stroke="#61686b" stroke-width="1" stroke-opacity="1"></use></g></g></g></g></svg>